<svg id="visual" viewBox="0 0 900 450" width="900" height="450" xmlns="http://www.w3.org/2000/svg" xmlns:xlink="http://www.w3.org/1999/xlink" version="1.1"><rect x="0" y="0" width="900" height="450" fill="#2048D9"></rect><defs><linearGradient id="grad1_0" x1="50%" y1="0%" x2="100%" y2="100%"><stop offset="10%" stop-color="#2048d9" stop-opacity="1"></stop><stop offset="90%" stop-color="#2048d9" stop-opacity="1"></stop></linearGradient></defs><defs><linearGradient id="grad2_0" x1="0%" y1="0%" x2="50%" y2="100%"><stop offset="10%" stop-color="#2048d9" stop-opacity="1"></stop><stop offset="90%" stop-color="#2048d9" stop-opacity="1"></stop></linearGradient></defs><g transform="translate(900, 0)"><path d="M0 405C-50.3 395.3 -100.5 385.6 -152.7 368.6C-204.9 351.7 -259 327.5 -286.4 286.4C-313.8 245.3 -314.5 187.2 -329.8 136.6C-345.1 86.1 -375.1 43 -405 0L0 0Z" fill="#000"></path></g><g transform="translate(0, 450)"><path d="M0 -405C45.8 -379.1 91.5 -353.3 138.5 -334.4C185.5 -315.6 233.7 -303.8 275.8 -275.8C317.8 -247.8 353.7 -203.6 374.2 -155C394.7 -106.3 399.8 -53.2 405 0L0 0Z" fill="#000"></path></g></svg>