<svg id="visual" viewBox="0 0 900 600" width="900" height="600" xmlns="http://www.w3.org/2000/svg" xmlns:xlink="http://www.w3.org/1999/xlink" version="1.1"><rect x="0" y="0" width="900" height="600" fill="#fff"></rect><path d="M0 149L18.8 144.5C37.7 140 75.3 131 112.8 128.8C150.3 126.7 187.7 131.3 225.2 130.5C262.7 129.7 300.3 123.3 337.8 122.3C375.3 121.3 412.7 125.7 450.2 128.7C487.7 131.7 525.3 133.3 562.8 133.5C600.3 133.7 637.7 132.3 675.2 124.8C712.7 117.3 750.3 103.7 787.8 104.3C825.3 105 862.7 120 881.3 127.5L900 135L900 0L881.3 0C862.7 0 825.3 0 787.8 0C750.3 0 712.7 0 675.2 0C637.7 0 600.3 0 562.8 0C525.3 0 487.7 0 450.2 0C412.7 0 375.3 0 337.8 0C300.3 0 262.7 0 225.2 0C187.7 0 150.3 0 112.8 0C75.3 0 37.7 0 18.8 0L0 0Z" fill="#2048D9" stroke-linecap="round" stroke-linejoin="miter"></path></svg>